<mxfile host="app.diagrams.net" modified="2024-04-09T10:45:13.725Z" agent="Mozilla/5.0 (Windows NT 10.0; Win64; x64) AppleWebKit/537.36 (KHTML, like Gecko) Chrome/123.0.0.0 Safari/537.36" version="21.2.3" etag="T5OrwY5EO2rC83qhQn8K" type="github">
  <diagram name="Page-1" id="IMbPTc8sxAkngKRc5Flq">
    <mxGraphModel>
      <root>
        <mxCell id="0" />
        <mxCell id="1" parent="0" />
      </root>
    </mxGraphModel>
  </diagram>
</mxfile>
